<svg xmlns="http://www.w3.org/2000/svg" xmlns:xlink="http://www.w3.org/1999/xlink" viewBox="0 0 128 127" version="1.1" x="0px" y="0px"><title>repair</title><desc>Created with Sketch.</desc><g stroke="none" stroke-width="1" fill="none" fill-rule="evenodd"><path d="M19.1397089,110.717766 C18.1765312,110.717766 17.2152347,110.350931 16.4796829,109.615379 C15.7441312,108.879828 15.377296,107.918531 15.377296,106.955354 C15.377296,105.992176 15.7441312,105.030879 16.4796829,104.295328 L37.5002837,83.2728457 C38.9695059,81.8036234 41.3511133,81.8036234 42.8203355,83.2728457 C43.5558872,84.0083974 43.9227225,84.9696939 43.9227225,85.9328716 C43.9227225,86.8960493 43.5558872,87.859227 42.8203355,88.5928975 L21.7997348,109.615379 C21.0660642,110.350931 20.1028865,110.717766 19.1397089,110.717766 L19.1397089,110.717766 Z M49.8391167,54.1009774 C50.0629803,54.2458303 50.2736754,54.4151389 50.4655585,54.6070219 L53.5018257,57.6432891 L63.5399432,47.5957655 L49.9200086,33.9589 C48.9568309,32.9938411 48.5899957,31.5810551 48.9643557,30.267973 C50.6781348,24.2688057 48.8345525,17.4381451 44.2669833,12.8686946 L44.2669833,12.8668134 C40.2374391,8.83350683 34.6201566,6.99368693 29.1383211,7.65399039 L39.3137667,17.8407233 C43.6104422,22.1430424 43.6104422,29.1430116 39.3137667,33.4453307 C37.2369148,35.525945 34.4640165,36.6734809 31.5124036,36.6734809 C28.5589095,36.6734809 25.7878924,35.525945 23.7091593,33.4453307 L13.518664,23.241667 C12.7906371,28.7987508 14.6229322,34.4329641 18.7051502,38.3665667 C23.3178684,42.9868097 30.1372417,44.8341545 36.1307654,43.1184942 C37.4438475,42.7441341 38.860396,43.1109694 39.8273361,44.0779095 L49.8391167,54.1009774 Z M59.136039,63.2756212 L62.9605317,67.1001139 L99.3731635,32.4576973 C99.7738605,32.0776936 100.253568,31.789869 100.776544,31.6149168 L107.846117,29.2577651 L115.105693,22.0000707 L106.004416,12.8987939 L98.7448406,20.1583696 L96.3895701,27.2260622 C96.1958058,27.8129986 95.8609511,28.3397364 95.413224,28.7648891 L59.136039,63.2756212 Z M83.9115278,88.2166562 C84.8765867,89.1817151 85.2434219,90.5945011 84.8671807,91.9075832 C83.1552828,97.9086318 84.9988651,104.739292 89.5645531,109.310624 C93.5959785,113.343931 99.2245482,115.185632 104.695097,114.523447 L94.5196509,104.336714 C90.2210942,100.034395 90.2210942,93.0363071 94.5196509,88.7321067 C96.5965028,86.6514924 99.3656387,85.5058377 102.319133,85.5058377 C105.272627,85.5058377 108.043644,86.6514924 110.122377,88.7321067 L120.314754,98.9357705 C121.039018,93.3786866 119.208604,87.7444734 115.126386,83.8108707 C110.577629,79.0514184 103.942614,77.2774407 97.700771,79.0589432 C96.3914513,79.4351845 94.9730216,79.0702305 94.0042003,78.0995279 L78.5632579,62.6416546 L68.485635,72.6270984 L83.9115278,88.2166562 Z M10.34695,115.748112 C15.1289767,119.58013 22.1044902,119.597061 26.0493801,115.746231 L47.3051317,94.4904797 C46.6354222,90.4308362 48.5241534,85.4381143 50.8907111,83.2521524 C53.4604391,80.4905413 57.8417689,78.6732959 61.2147721,78.9968634 C61.6794301,79.0420124 62.125276,79.1247855 62.5523099,79.2451827 L63.4327145,78.3628968 L60.9833837,75.9116849 C60.6372417,75.7348514 60.3136742,75.5034631 60.0258496,75.2156385 L50.8794239,66.0692128 C50.5859557,65.7757446 50.3470425,65.4408898 50.1664467,65.0759358 L47.7434528,62.6491795 L46.8498797,63.5427525 C46.9702769,63.9679052 47.05305,64.4156323 47.098199,64.8802903 C47.4274101,68.2438874 45.6064023,72.632742 42.8410288,75.20247 C40.6550669,77.5709089 35.6679886,79.4709274 31.6027015,78.7880495 L10.3337815,100.058851 C6.49423916,103.975523 6.51117002,110.960442 10.34695,115.748112 L10.34695,115.748112 Z M18.5038611,126.092867 C13.8271819,126.092867 9.0470363,124.497604 5.2488805,121.297671 C5.08521554,121.160343 4.93471903,121.009847 4.79550975,120.846182 C-1.67207799,113.17086 -1.5874237,101.469756 4.98739281,94.7651358 L27.9456362,71.8050112 C29.2530747,70.4956915 31.3205205,70.335789 32.8160797,71.4212451 C33.6306421,71.7241193 36.5502745,70.8418335 37.3084006,70.1044006 C37.4306791,69.9576665 37.520977,69.8673686 37.6639487,69.7413277 C38.8208906,68.714189 39.5733732,66.7614967 39.6204034,65.852874 C38.9205946,65.2527692 38.459699,64.4081075 38.341183,63.4787915 C38.1925677,62.3218495 38.587621,61.1630264 39.4115894,60.3409392 L42.4252822,57.3272464 L35.9821501,50.8765896 C27.9080121,52.3966044 19.4444643,49.7535093 13.4321285,43.7355299 C5.70977608,36.291596 3.63292417,24.5340558 8.31900941,14.5297999 C8.83822239,13.4180069 9.86724231,12.6297814 11.0768581,12.4190863 C12.2902362,12.20651 13.5205452,12.5996821 14.3877814,13.4669183 L29.0348547,28.1290413 C30.3479368,29.4440046 32.6768704,29.4440046 33.9880713,28.1290413 C35.3575896,26.7576418 35.3575896,24.5284122 33.9899525,23.1570127 L19.3409979,8.49300846 C18.475643,7.6257723 18.0862332,6.39170087 18.2988096,5.18396634 C18.5095047,3.97811301 19.295849,2.94909309 20.4057608,2.42988011 C30.2087275,-2.17155084 41.9361685,-0.113510997 49.5907975,7.55052404 L49.5907975,7.54864283 C55.6031333,13.5685034 58.2349411,22.0414572 56.7224511,30.1212389 L69.5579226,42.9736413 L89.5476223,23.9584066 L91.8878431,16.9377442 C92.0722013,16.3827883 92.3844816,15.8805062 92.7964658,15.4666407 L103.34439,4.91871623 C104.755295,3.5078114 107.253537,3.5078114 108.664442,4.91871623 L123.085771,19.3400448 C123.791223,20.0454972 124.188158,21.0030313 124.188158,22.0000707 C124.188158,22.9971101 123.791223,23.9546442 123.085771,24.6600966 L112.537846,35.2061399 C112.125862,35.6200053 111.62358,35.9304044 111.068624,36.1166438 L103.95202,38.4869639 L84.0168753,57.4551685 L97.8456239,71.2970855 C106.106001,69.7131096 114.605292,72.376898 120.457725,78.5021061 C128.123642,85.8858414 130.198612,97.6433816 125.514408,107.647637 C124.993314,108.75943 123.964294,109.547656 122.75656,109.758351 C121.545063,109.978452 120.310991,109.581518 119.443755,108.7124 L104.798563,94.0502773 C103.485481,92.735314 101.156547,92.7315516 99.8434651,94.0502773 C98.4739468,95.4197956 98.4739468,97.6509065 99.8434651,99.0204248 L114.490538,113.682548 C115.355893,114.549784 115.745303,115.783855 115.532727,116.99159 C115.322032,118.199324 114.535687,119.224582 113.425776,119.747557 C103.622809,124.345226 91.8953679,122.290948 84.2407389,114.626913 C78.2284031,108.608934 75.5984765,100.13598 77.1109665,92.0543173 L68.7508851,83.6867111 L65.7541232,86.6834729 C64.9301548,87.5074413 63.7769753,87.9175444 62.6162709,87.7538794 C61.6850737,87.6353634 60.8422932,87.1744678 60.2403071,86.474659 C59.3335656,86.5216892 57.3808734,87.2722905 56.3537346,88.4292325 C56.2258126,88.5740854 56.0884845,88.7057698 55.9417504,88.8280483 C55.2532289,89.5429067 54.3652994,92.4644203 54.7321347,93.3786866 C55.819472,94.876127 55.5956084,96.8401065 54.28817,98.147545 L31.3543823,121.081333 C31.3468574,121.090739 31.3374514,121.100145 31.3280454,121.10767 C27.9399926,124.427999 23.2764818,126.092867 18.5038611,126.092867 L18.5038611,126.092867 Z" fill="#000000"></path></g></svg>